<svg version="1.1" id="Layer_1" xmlns="http://www.w3.org/2000/svg" xmlns:xlink="http://www.w3.org/1999/xlink" x="0px" y="0px"
	 width="100%" viewBox="0 0 244 70" enable-background="new 0 0 244 70" xml:space="preserve">
<path fill="#F9F9F9" opacity="1.000000" stroke="none" 
	d="
M190.000000,71.000000 
	C126.716728,71.000000 63.933456,71.000000 1.075092,71.000000 
	C1.075092,47.735516 1.075092,24.470739 1.075092,1.102978 
	C82.333260,1.102978 163.666611,1.102978 244.978271,1.102978 
	C244.978271,24.399504 244.978271,47.699764 244.978271,71.000000 
	C226.804352,71.000000 208.652176,71.000000 190.000000,71.000000 
M89.521545,3.116329 
	C87.190575,3.116330 84.859596,3.113704 82.528625,3.116830 
	C75.894615,3.125726 75.559502,3.460080 75.557587,10.239304 
	C75.552643,27.722385 75.675125,45.206821 75.476952,62.687656 
	C75.423996,67.358269 76.771332,69.136467 81.710396,69.122650 
	C133.493225,68.977684 185.276688,68.990089 237.059662,69.106804 
	C241.671402,69.117195 243.126419,67.491081 243.079239,62.982121 
	C242.894577,45.334465 243.006149,27.683731 243.002655,10.034141 
	C243.001312,3.268142 242.845917,3.117524 235.874847,3.117273 
	C187.421722,3.115525 138.968613,3.116338 89.521545,3.116329 
M39.499977,68.906761 
	C47.166290,68.906754 54.839668,68.708138 62.496292,68.980530 
	C67.159027,69.146416 69.002777,67.714027 68.949974,62.757446 
	C68.756470,44.595776 68.907730,26.429592 69.047989,8.266024 
	C69.071678,5.197453 68.027267,3.406590 64.893578,3.400199 
	C45.727840,3.361115 26.560671,3.288472 7.398789,3.562851 
	C5.941227,3.583722 3.285816,6.188990 3.270172,7.615789 
	C3.065595,26.274649 3.316340,44.937897 3.253493,63.599373 
	C3.239161,67.854950 5.048132,69.037750 9.002346,68.965683 
	C18.831980,68.786530 28.667070,68.906754 39.499977,68.906761 
z"/>
<path fill="#070809" opacity="1.000000" stroke="none" 
	d="
M90.018517,3.116329 
	C138.968613,3.116338 187.421722,3.115525 235.874847,3.117273 
	C242.845917,3.117524 243.001312,3.268142 243.002655,10.034141 
	C243.006149,27.683731 242.894577,45.334465 243.079239,62.982121 
	C243.126419,67.491081 241.671402,69.117195 237.059662,69.106804 
	C185.276688,68.990089 133.493225,68.977684 81.710396,69.122650 
	C76.771332,69.136467 75.423996,67.358269 75.476952,62.687656 
	C75.675125,45.206821 75.552643,27.722385 75.557587,10.239304 
	C75.559502,3.460080 75.894615,3.125726 82.528625,3.116830 
	C84.859596,3.113704 87.190575,3.116330 90.018517,3.116329 
M147.500000,37.994659 
	C125.069298,37.994659 102.638588,37.994659 80.190781,37.994659 
	C80.190781,47.129623 80.190781,55.718979 80.190781,64.509201 
	C117.991425,64.509201 155.555832,64.509201 193.327393,64.509201 
	C193.327393,55.569832 193.327393,46.877655 193.327393,37.994659 
	C178.146255,37.994659 163.323120,37.994659 147.500000,37.994659 
M153.453979,32.984398 
	C156.221863,32.984398 158.989731,32.984398 161.769104,32.984398 
	C161.769104,24.300856 161.769104,16.216513 161.769104,7.930366 
	C134.499771,7.930366 107.473228,7.930366 80.307480,7.930366 
	C80.307480,16.363457 80.307480,24.561602 80.307480,32.984398 
	C104.578934,32.984398 128.521164,32.984398 153.453979,32.984398 
M197.500183,7.655873 
	C187.249054,7.655873 176.997925,7.655873 166.672028,7.655873 
	C166.672028,16.480705 166.672028,24.576546 166.672028,32.787949 
	C190.689072,32.787949 214.448822,32.787949 238.309509,32.787949 
	C238.309509,24.370275 238.309509,16.170105 238.309509,7.655859 
	C224.795319,7.655859 211.647766,7.655859 197.500183,7.655873 
M238.554367,39.017933 
	C237.021194,38.679424 235.491974,38.070923 233.954193,38.048538 
	C226.798431,37.944366 219.640335,38.002365 212.483063,38.002354 
	C207.732040,38.002346 202.981018,38.002350 198.371201,38.002350 
	C198.371201,47.302486 198.371201,55.862942 198.371201,64.765862 
	C211.028259,64.765862 223.320099,64.724762 235.611282,64.796036 
	C238.523651,64.812912 238.753113,63.123047 238.735825,60.902058 
	C238.681396,53.911705 238.700211,46.920780 238.554367,39.017933 
z"/>
<path fill="#100F10" opacity="1.000000" stroke="none" 
	d="
M38.999973,68.906761 
	C28.667070,68.906754 18.831980,68.786530 9.002346,68.965683 
	C5.048132,69.037750 3.239161,67.854950 3.253493,63.599373 
	C3.316340,44.937897 3.065595,26.274649 3.270172,7.615789 
	C3.285816,6.188990 5.941227,3.583722 7.398789,3.562851 
	C26.560671,3.288472 45.727840,3.361115 64.893578,3.400199 
	C68.027267,3.406590 69.071678,5.197453 69.047989,8.266024 
	C68.907730,26.429592 68.756470,44.595776 68.949974,62.757446 
	C69.002777,67.714027 67.159027,69.146416 62.496292,68.980530 
	C54.839668,68.708138 47.166290,68.906754 38.999973,68.906761 
M39.344154,46.011314 
	C40.665379,49.798813 41.986599,53.586315 43.554119,58.079872 
	C46.965290,41.791420 45.421089,32.816303 35.621124,12.064774 
	C32.252247,27.611748 21.717867,40.830982 28.879080,57.324345 
	C30.267296,53.278069 31.528454,49.221565 33.083866,45.281219 
	C33.606712,43.956692 34.877998,42.927597 35.807201,41.763474 
	C36.902691,42.922089 37.998184,44.080700 39.344154,46.011314 
M14.132388,7.284096 
	C12.176129,7.284096 10.219870,7.284096 7.672009,7.284096 
	C10.505773,24.375744 13.242270,40.880733 15.978766,57.385727 
	C18.473639,50.290619 22.875626,43.797821 20.841591,35.837948 
	C19.856972,31.984791 19.603443,27.950893 18.794100,24.045416 
	C17.634893,18.451668 16.269871,12.900573 14.132388,7.284096 
M53.917339,52.502468 
	C54.432217,53.934532 54.947094,55.366596 55.461971,56.798660 
	C55.740307,56.775166 56.018642,56.751675 56.296982,56.728184 
	C58.980091,40.432407 61.663197,24.136635 64.393715,7.552930 
	C61.190899,7.552930 58.777225,7.552930 56.202023,7.552930 
	C54.906738,15.152119 53.785667,22.541096 52.359325,29.870668 
	C50.911232,37.312031 49.894737,44.652233 53.917339,52.502468 
M27.966909,23.475391 
	C29.663877,18.311405 31.360844,13.147418 33.202187,7.544094 
	C28.541475,7.544094 24.488024,7.544094 19.979597,7.544094 
	C21.407694,15.981615 22.780825,24.094383 24.153955,32.207150 
	C24.425312,32.197620 24.696667,32.188091 24.968021,32.178558 
	C25.898533,29.530128 26.829046,26.881697 27.966909,23.475391 
M51.203785,12.862409 
	C51.453457,11.150118 51.703129,9.437827 51.989914,7.470998 
	C47.404755,7.470998 43.476753,7.470998 38.923286,7.470998 
	C41.783604,16.062113 44.516586,24.270761 47.249569,32.479412 
	C47.505550,32.451160 47.761528,32.422913 48.017509,32.394665 
	C49.035614,26.169315 50.053719,19.943964 51.203785,12.862409 
M11.447465,54.022999 
	C10.311419,47.390316 9.175375,40.757633 8.039330,34.124950 
	C7.849275,34.181103 7.659220,34.237255 7.469164,34.293404 
	C7.469164,44.403931 7.469164,54.514458 7.469164,64.604759 
	C9.487888,64.604759 11.196111,64.604759 13.172823,64.604759 
	C12.630003,61.089264 12.149450,57.977043 11.447465,54.022999 
M63.046249,39.685108 
	C61.699596,47.964134 60.352947,56.243156 58.992653,64.606049 
	C61.218151,64.606049 62.927643,64.606049 64.644432,64.606049 
	C64.644432,54.205956 64.644432,44.157639 64.644432,34.109322 
	C64.516777,34.100101 64.389122,34.090881 64.261459,34.081661 
	C63.889664,35.673836 63.517868,37.266010 63.046249,39.685108 
M40.355091,61.377556 
	C39.090359,57.605858 37.825626,53.834164 36.085480,48.644684 
	C34.005177,54.847206 32.415405,59.587181 30.622856,64.931747 
	C33.794559,64.931747 36.401199,65.125732 38.942478,64.803780 
	C39.630932,64.716560 40.121750,63.069309 40.355091,61.377556 
M23.853361,54.178047 
	C23.674761,53.617382 23.496159,53.056713 22.875271,51.107609 
	C21.141445,56.422081 19.851997,60.374466 18.468630,64.614731 
	C21.073074,64.614731 22.978851,64.614731 25.315042,64.614731 
	C24.821136,61.134102 24.382036,58.039688 23.853361,54.178047 
M47.417557,60.028313 
	C47.294575,61.563400 47.171593,63.098492 47.041542,64.721794 
	C49.441895,64.721794 51.210663,64.721794 53.656754,64.721794 
	C52.256039,60.388405 50.982731,56.449165 49.709423,52.509930 
	C49.418705,52.526333 49.127991,52.542740 48.837276,52.559143 
	C48.439178,54.778893 48.041080,56.998638 47.417557,60.028313 
z"/>
<path fill="#F4F4F4" opacity="1.000000" stroke="none" 
	d="
M148.000000,37.994659 
	C163.323120,37.994659 178.146255,37.994659 193.327393,37.994659 
	C193.327393,46.877655 193.327393,55.569832 193.327393,64.509201 
	C155.555832,64.509201 117.991425,64.509201 80.190781,64.509201 
	C80.190781,55.718979 80.190781,47.129623 80.190781,37.994659 
	C102.638588,37.994659 125.069298,37.994659 148.000000,37.994659 
M163.075470,50.001957 
	C163.075470,50.884129 163.075470,51.766304 163.075470,52.980961 
	C158.613007,50.162842 158.733093,43.299839 152.221542,42.650494 
	C152.221542,48.145489 152.137756,52.795284 152.299881,57.436501 
	C152.328598,58.258564 153.381973,59.044830 153.962189,59.847622 
	C154.560989,59.065449 155.598724,58.324169 155.676117,57.493423 
	C155.906219,55.023430 155.758591,52.518250 155.758591,49.568710 
	C160.170929,52.783886 160.383514,58.795280 165.855225,60.050430 
	C167.692871,49.410782 166.741913,43.351833 163.073715,43.212692 
	C163.073715,45.195282 163.073715,47.168560 163.075470,50.001957 
M131.194748,50.534584 
	C131.196777,52.860821 131.042496,55.203442 131.283676,57.504608 
	C131.370773,58.335735 132.406265,59.067467 133.008972,59.844555 
	C133.581039,59.035660 134.568604,58.264618 134.646378,57.410694 
	C134.869827,54.958149 134.725159,52.472069 134.725159,49.518417 
	C139.139374,52.818928 139.324356,58.836468 144.871490,60.022064 
	C146.598724,48.832214 145.709198,43.319389 141.826630,43.261280 
	C141.826630,46.416069 141.826630,49.581554 141.826630,52.808903 
	C137.495331,50.111858 137.842361,43.264500 131.194748,42.714851 
	C131.194748,45.333031 131.194748,47.462410 131.194748,50.534584 
M186.388885,54.159950 
	C185.197678,51.070919 184.104691,47.937931 182.754089,44.920242 
	C182.360428,44.040634 181.249878,42.966061 180.434692,42.937748 
	C179.638596,42.910103 178.413376,43.937294 178.044144,44.790371 
	C175.958405,49.609303 174.073578,54.515190 171.592361,60.709438 
	C175.213669,58.886932 177.663162,56.707912 180.145859,56.669373 
	C182.655975,56.630409 185.199005,58.711414 188.671631,60.293949 
	C187.739990,57.634972 187.252380,56.243286 186.388885,54.159950 
M119.950653,49.530060 
	C119.557198,48.483932 119.163750,47.437805 118.927795,46.810432 
	C121.391403,45.856213 123.221336,45.147434 125.051262,44.438656 
	C124.883369,43.945415 124.715469,43.452179 124.547577,42.958939 
	C121.628914,42.958939 118.710251,42.958939 115.645462,42.958939 
	C115.645462,48.667164 115.645462,54.165764 115.645462,59.885849 
	C118.182396,59.885849 120.342308,60.034321 122.464104,59.814648 
	C123.344536,59.723499 124.143494,58.845512 124.979507,58.325348 
	C124.166733,57.808769 123.340965,56.834652 122.543503,56.857304 
	C119.585228,56.941311 118.070381,56.201752 118.997589,53.913876 
	C121.465965,52.732639 123.179192,51.912769 124.892426,51.092899 
	C123.534843,50.593262 122.177269,50.093620 119.950653,49.530060 
M89.276360,46.049320 
	C88.211327,44.842186 87.146286,43.635056 86.081253,42.427921 
	C85.689354,42.769596 85.297462,43.111267 84.905563,43.452938 
	C86.573120,48.116684 88.152786,52.815296 89.977852,57.416565 
	C90.371841,58.409874 91.540649,59.324978 92.568604,59.736668 
	C93.049881,59.929420 94.475304,59.000866 94.738777,58.303253 
	C96.624634,53.310131 98.321411,48.245594 100.078270,43.203751 
	C99.667053,42.915745 99.255844,42.627743 98.844627,42.339741 
	C97.878868,43.278603 96.635262,44.064640 96.014473,45.193253 
	C95.149879,46.765125 94.759865,48.596401 94.150734,50.310966 
	C93.664597,51.679367 93.154556,53.039284 92.382767,55.146606 
	C91.268547,51.780895 90.438393,49.273270 89.276360,46.049320 
M105.020874,54.373341 
	C105.020874,56.163826 105.020874,57.954315 105.020874,59.742195 
	C106.547630,59.742195 107.616302,59.742195 108.745735,59.742195 
	C108.745735,53.752316 108.745735,47.996521 108.745735,42.266418 
	C107.440109,42.266418 106.371140,42.266418 105.020874,42.266418 
	C105.020874,46.140491 105.020874,49.778343 105.020874,54.373341 
z"/>
<path fill="#91C7D8" opacity="1.000000" stroke="none" 
	d="
M152.958694,32.984398 
	C128.521164,32.984398 104.578934,32.984398 80.307480,32.984398 
	C80.307480,24.561602 80.307480,16.363457 80.307480,7.930366 
	C107.473228,7.930366 134.499771,7.930366 161.769104,7.930366 
	C161.769104,16.216513 161.769104,24.300856 161.769104,32.984398 
	C158.989731,32.984398 156.221863,32.984398 152.958694,32.984398 
M136.805023,25.878244 
	C139.836273,26.875353 142.867538,27.872461 146.516235,29.072672 
	C144.382858,23.600107 142.585205,18.783697 140.587662,14.051668 
	C140.223663,13.189410 139.120102,12.316507 138.213181,12.121368 
	C137.622421,11.994258 136.402466,12.927775 136.093781,13.653765 
	C133.991394,18.598303 132.056122,23.613909 130.066925,28.606575 
	C130.440460,28.931484 130.813995,29.256393 131.187546,29.581303 
	C132.776154,28.360224 134.364777,27.139145 136.805023,25.878244 
M116.418076,29.076561 
	C121.211586,29.907055 124.831711,28.521397 126.473816,23.365702 
	C124.794952,23.619545 123.385468,24.828344 121.892387,24.942352 
	C119.548149,25.121353 116.526192,25.368608 114.915390,24.127697 
	C112.454933,22.232239 112.470039,18.587667 115.045319,16.780561 
	C116.707756,15.614010 119.706718,16.035910 122.052711,16.275278 
	C123.519424,16.424932 124.885735,17.558640 126.297096,18.250780 
	C125.029182,13.138557 121.855888,11.308988 117.363426,11.882118 
	C113.224762,12.410114 110.715370,15.006051 110.042633,18.951900 
	C109.248062,23.612339 111.305817,26.997341 116.418076,29.076561 
M102.246162,13.012353 
	C102.246162,17.339727 102.246162,21.667103 102.246162,26.409063 
	C99.083199,25.271814 97.240265,24.609188 94.568169,23.648432 
	C95.685265,28.187757 98.006439,30.113276 100.981575,29.082933 
	C102.977165,28.391830 105.111458,25.911013 105.681808,23.821100 
	C106.486160,20.873796 106.118187,17.522705 105.763779,14.399594 
	C105.670479,13.577465 103.782043,12.959051 102.246162,13.012353 
M151.004974,24.369175 
	C151.004974,26.152025 151.004974,27.934875 151.004974,29.726353 
	C152.562653,29.726353 153.619461,29.726353 154.993057,29.726353 
	C154.993057,24.528601 155.155838,19.567795 154.865387,14.633670 
	C154.801941,13.555927 153.120422,12.573436 152.184097,11.547077 
	C151.791061,11.877739 151.398010,12.208401 151.004974,12.539062 
	C151.004974,16.163876 151.004974,19.788691 151.004974,24.369175 
M89.995003,24.368000 
	C89.994713,21.217228 89.885864,18.061705 90.023514,14.916970 
	C90.172485,11.513474 88.508789,11.642831 86.005859,12.475132 
	C86.005859,17.509254 85.848495,22.315029 86.118629,27.096653 
	C86.184578,28.263960 87.652489,29.352062 88.475807,30.476582 
	C88.917221,30.216860 89.358643,29.957138 89.800056,29.697416 
	C89.865036,28.240995 89.930016,26.784576 89.995003,24.368000 
z"/>
<path fill="#F7F7F7" opacity="1.000000" stroke="none" 
	d="
M198.000198,7.655866 
	C211.647766,7.655859 224.795319,7.655859 238.309509,7.655859 
	C238.309509,16.170105 238.309509,24.370275 238.309509,32.787949 
	C214.448822,32.787949 190.689072,32.787949 166.672028,32.787949 
	C166.672028,24.576546 166.672028,16.480705 166.672028,7.655873 
	C176.997925,7.655873 187.249054,7.655873 198.000198,7.655866 
M215.489426,11.995099 
	C214.661377,12.633266 213.436493,13.098592 213.070847,13.938148 
	C210.964966,18.773260 209.062393,23.696911 206.627502,29.740864 
	C210.083191,28.145580 212.568329,26.110415 215.070114,26.089760 
	C217.641312,26.068529 220.228745,28.014044 224.165497,29.669178 
	C221.098114,22.823414 218.683487,17.434490 215.489426,11.995099 
M198.529129,25.461954 
	C195.288422,26.930553 192.238037,26.445625 191.169601,22.994814 
	C190.562546,21.034176 191.130203,17.911753 192.421005,16.342581 
	C194.527573,13.781708 197.362885,14.526768 199.857025,16.761166 
	C200.765518,17.575043 202.303375,17.686394 204.179489,18.334217 
	C201.249863,12.550145 197.558640,10.705923 192.975449,12.114195 
	C189.185699,13.278670 186.448074,17.356375 186.974930,21.411373 
	C187.559418,25.909815 190.199875,28.701584 194.725357,29.207729 
	C199.052200,29.691660 202.292130,28.063156 204.215546,22.360645 
	C201.819229,23.576586 200.465851,24.263311 198.529129,25.461954 
M172.899826,27.313299 
	C175.881271,28.101002 178.862701,28.888702 181.728302,29.645798 
	C183.844223,23.372692 173.090256,29.021524 176.365845,22.850655 
	C178.598068,21.959637 180.357559,21.257315 183.171021,20.134293 
	C179.776962,18.131029 174.769989,20.834274 176.455215,15.786336 
	C178.874542,14.991442 180.690979,14.394636 182.507416,13.797831 
	C182.341156,13.281539 182.174881,12.765246 182.008606,12.248955 
	C179.092361,12.248955 176.176117,12.248955 172.894119,12.248955 
	C172.894119,17.091352 172.894119,21.718596 172.899826,27.313299 
M231.980621,13.817640 
	C230.883621,13.098107 229.786621,12.378575 228.198929,11.337187 
	C228.198929,18.363770 228.198929,23.989742 228.198929,29.958090 
	C229.577652,29.840525 230.743805,29.741083 231.983337,29.635386 
	C231.983337,24.412529 231.983337,19.586119 231.980621,13.817640 
z"/>
<path fill="#C75B5C" opacity="1.000000" stroke="none" 
	d="
M238.622528,39.474007 
	C238.700211,46.920780 238.681396,53.911705 238.735825,60.902058 
	C238.753113,63.123047 238.523651,64.812912 235.611282,64.796036 
	C223.320099,64.724762 211.028259,64.765862 198.371201,64.765862 
	C198.371201,55.862942 198.371201,47.302486 198.371201,38.002350 
	C202.981018,38.002350 207.732040,38.002346 212.483063,38.002354 
	C219.640335,38.002365 226.798431,37.944366 233.954193,38.048538 
	C235.491974,38.070923 237.021194,38.679424 238.622528,39.474007 
M211.618469,54.217102 
	C212.530273,53.258373 214.001389,52.418610 214.235931,51.315834 
	C214.705597,49.107624 215.322098,46.246052 214.316315,44.620441 
	C213.478363,43.266109 210.144882,42.417366 208.399414,42.944157 
	C206.513885,43.513218 205.188843,45.939308 203.619324,47.555367 
	C204.039215,47.983906 204.459106,48.412445 204.878998,48.840981 
	C205.710403,48.526360 206.552826,48.237720 207.370697,47.891151 
	C208.667923,47.341461 209.948746,46.753052 211.236496,46.181019 
	C210.937485,47.910309 211.091873,49.925892 210.225983,51.297245 
	C209.115280,53.056301 207.060654,54.189648 205.654129,55.803055 
	C204.846390,56.729591 204.516434,58.072628 203.528885,60.166340 
	C208.462250,59.836994 212.177917,59.588940 215.893570,59.340885 
	C215.863251,58.634430 215.832932,57.927975 215.802612,57.221516 
	C214.284805,57.096691 212.754196,57.039314 211.266403,56.756561 
	C211.092148,56.723442 211.153992,55.447998 211.618469,54.217102 
M230.673813,56.939472 
	C229.338074,56.816212 228.002335,56.692947 226.196640,56.526318 
	C229.273605,52.694401 234.542236,50.061623 231.082977,44.859520 
	C230.085907,43.360107 226.414688,42.810753 224.231323,43.220634 
	C222.785080,43.492138 221.804932,46.246498 220.616135,47.889343 
	C221.098846,48.251461 221.581543,48.613575 222.064255,48.975689 
	C222.770691,48.461750 223.417725,47.815788 224.197510,47.464836 
	C225.364349,46.939693 226.624542,46.621979 227.845016,46.216038 
	C227.774078,47.689003 228.211868,49.493256 227.517166,50.560009 
	C226.374130,52.315205 224.366776,53.480904 222.974991,55.109753 
	C221.992493,56.259583 221.425491,57.764431 220.248260,59.870682 
	C224.345673,59.870682 227.170258,60.028534 229.949829,59.744968 
	C230.545914,59.684158 230.979004,58.025494 230.673813,56.939472 
z"/>
<path fill="#F6F6F6" opacity="1.000000" stroke="none" 
	d="
M39.218914,45.625313 
	C37.998184,44.080700 36.902691,42.922089 35.807201,41.763474 
	C34.877998,42.927597 33.606712,43.956692 33.083866,45.281219 
	C31.528454,49.221565 30.267296,53.278069 28.879080,57.324345 
	C21.717867,40.830982 32.252247,27.611748 35.621124,12.064774 
	C45.421089,32.816303 46.965290,41.791420 43.554119,58.079872 
	C41.986599,53.586315 40.665379,49.798813 39.218914,45.625313 
z"/>
<path fill="#F4F4F4" opacity="1.000000" stroke="none" 
	d="
M14.562557,7.307681 
	C16.269871,12.900573 17.634893,18.451668 18.794100,24.045416 
	C19.603443,27.950893 19.856972,31.984791 20.841591,35.837948 
	C22.875626,43.797821 18.473639,50.290619 15.978766,57.385727 
	C13.242270,40.880733 10.505773,24.375744 7.672009,7.284096 
	C10.219870,7.284096 12.176129,7.284096 14.562557,7.307681 
z"/>
<path fill="#F6F6F6" opacity="1.000000" stroke="none" 
	d="
M53.791801,52.125145 
	C49.894737,44.652233 50.911232,37.312031 52.359325,29.870668 
	C53.785667,22.541096 54.906738,15.152119 56.202023,7.552930 
	C58.777225,7.552930 61.190899,7.552930 64.393715,7.552930 
	C61.663197,24.136635 58.980091,40.432407 56.296982,56.728184 
	C56.018642,56.751675 55.740307,56.775166 55.461971,56.798660 
	C54.947094,55.366596 54.432217,53.934532 53.791801,52.125145 
z"/>
<path fill="#C3595A" opacity="1.000000" stroke="none" 
	d="
M27.863234,23.854328 
	C26.829046,26.881697 25.898533,29.530128 24.968021,32.178558 
	C24.696667,32.188091 24.425312,32.197620 24.153955,32.207150 
	C22.780825,24.094383 21.407694,15.981615 19.979597,7.544094 
	C24.488024,7.544094 28.541475,7.544094 33.202187,7.544094 
	C31.360844,13.147418 29.663877,18.311405 27.863234,23.854328 
z"/>
<path fill="#C55A5B" opacity="1.000000" stroke="none" 
	d="
M51.137802,13.290510 
	C50.053719,19.943964 49.035614,26.169315 48.017509,32.394665 
	C47.761528,32.422913 47.505550,32.451160 47.249569,32.479412 
	C44.516586,24.270761 41.783604,16.062113 38.923286,7.470998 
	C43.476753,7.470998 47.404755,7.470998 51.989914,7.470998 
	C51.703129,9.437827 51.453457,11.150118 51.137802,13.290510 
z"/>
<path fill="#7FAFBE" opacity="1.000000" stroke="none" 
	d="
M11.558182,54.443909 
	C12.149450,57.977043 12.630003,61.089264 13.172823,64.604759 
	C11.196111,64.604759 9.487888,64.604759 7.469164,64.604759 
	C7.469164,54.514458 7.469164,44.403931 7.469164,34.293404 
	C7.659220,34.237255 7.849275,34.181103 8.039330,34.124950 
	C9.175375,40.757633 10.311419,47.390316 11.558182,54.443909 
z"/>
<path fill="#85B7C7" opacity="1.000000" stroke="none" 
	d="
M63.096161,39.271645 
	C63.517868,37.266010 63.889664,35.673836 64.261459,34.081661 
	C64.389122,34.090881 64.516777,34.100101 64.644432,34.109322 
	C64.644432,44.157639 64.644432,54.205956 64.644432,64.606049 
	C62.927643,64.606049 61.218151,64.606049 58.992653,64.606049 
	C60.352947,56.243156 61.699596,47.964134 63.096161,39.271645 
z"/>
<path fill="#8BC0D0" opacity="1.000000" stroke="none" 
	d="
M40.529182,61.757820 
	C40.121750,63.069309 39.630932,64.716560 38.942478,64.803780 
	C36.401199,65.125732 33.794559,64.931747 30.622856,64.931747 
	C32.415405,59.587181 34.005177,54.847206 36.085480,48.644684 
	C37.825626,53.834164 39.090359,57.605858 40.529182,61.757820 
z"/>
<path fill="#BD5657" opacity="1.000000" stroke="none" 
	d="
M23.898148,54.561661 
	C24.382036,58.039688 24.821136,61.134102 25.315042,64.614731 
	C22.978851,64.614731 21.073074,64.614731 18.468630,64.614731 
	C19.851997,60.374466 21.141445,56.422081 22.875271,51.107609 
	C23.496159,53.056713 23.674761,53.617382 23.898148,54.561661 
z"/>
<path fill="#C15859" opacity="1.000000" stroke="none" 
	d="
M47.530270,59.623352 
	C48.041080,56.998638 48.439178,54.778893 48.837276,52.559143 
	C49.127991,52.542740 49.418705,52.526333 49.709423,52.509930 
	C50.982731,56.449165 52.256039,60.388405 53.656754,64.721794 
	C51.210663,64.721794 49.441895,64.721794 47.041542,64.721794 
	C47.171593,63.098492 47.294575,61.563400 47.530270,59.623352 
z"/>
<path fill="#1D1D1E" opacity="1.000000" stroke="none" 
	d="
M163.074585,49.571899 
	C163.073715,47.168560 163.073715,45.195282 163.073715,43.212692 
	C166.741913,43.351833 167.692871,49.410782 165.855225,60.050430 
	C160.383514,58.795280 160.170929,52.783886 155.758591,49.568710 
	C155.758591,52.518250 155.906219,55.023430 155.676117,57.493423 
	C155.598724,58.324169 154.560989,59.065449 153.962189,59.847626 
	C153.381973,59.044830 152.328598,58.258564 152.299881,57.436501 
	C152.137756,52.795284 152.221542,48.145489 152.221542,42.650494 
	C158.733093,43.299839 158.613007,50.162842 163.075470,52.980961 
	C163.075470,51.766304 163.075470,50.884129 163.074585,49.571899 
z"/>
<path fill="#1C1C1C" opacity="1.000000" stroke="none" 
	d="
M131.194748,50.063187 
	C131.194748,47.462410 131.194748,45.333031 131.194748,42.714851 
	C137.842361,43.264500 137.495331,50.111858 141.826630,52.808903 
	C141.826630,49.581554 141.826630,46.416069 141.826630,43.261280 
	C145.709198,43.319389 146.598724,48.832214 144.871490,60.022064 
	C139.324356,58.836468 139.139374,52.818928 134.725159,49.518417 
	C134.725159,52.472069 134.869827,54.958149 134.646378,57.410694 
	C134.568604,58.264618 133.581039,59.035660 133.008972,59.844551 
	C132.406265,59.067467 131.370773,58.335735 131.283676,57.504608 
	C131.042496,55.203442 131.196777,52.860821 131.194748,50.063187 
z"/>
<path fill="#181819" opacity="1.000000" stroke="none" 
	d="
M186.576828,54.505775 
	C187.252380,56.243286 187.739990,57.634972 188.671631,60.293949 
	C185.199005,58.711414 182.655975,56.630409 180.145859,56.669373 
	C177.663162,56.707912 175.213669,58.886932 171.592361,60.709438 
	C174.073578,54.515190 175.958405,49.609303 178.044144,44.790371 
	C178.413376,43.937294 179.638596,42.910103 180.434692,42.937748 
	C181.249878,42.966061 182.360428,44.040634 182.754089,44.920242 
	C184.104691,47.937931 185.197678,51.070919 186.576828,54.505775 
z"/>
<path fill="#1F1F1F" opacity="1.000000" stroke="none" 
	d="
M120.385170,49.562019 
	C122.177269,50.093620 123.534843,50.593262 124.892426,51.092903 
	C123.179192,51.912769 121.465965,52.732639 118.997589,53.913876 
	C118.070381,56.201752 119.585228,56.941311 122.543503,56.857304 
	C123.340965,56.834652 124.166733,57.808769 124.979507,58.325348 
	C124.143494,58.845512 123.344536,59.723499 122.464104,59.814648 
	C120.342308,60.034321 118.182396,59.885849 115.645462,59.885849 
	C115.645462,54.165764 115.645462,48.667164 115.645462,42.958939 
	C118.710251,42.958939 121.628914,42.958939 124.547577,42.958939 
	C124.715469,43.452179 124.883369,43.945415 125.051262,44.438656 
	C123.221336,45.147434 121.391403,45.856213 118.927795,46.810432 
	C119.163750,47.437805 119.557198,48.483932 120.385170,49.562019 
z"/>
<path fill="#161616" opacity="1.000000" stroke="none" 
	d="
M89.442307,46.407482 
	C90.438393,49.273270 91.268547,51.780895 92.382767,55.146606 
	C93.154556,53.039284 93.664597,51.679367 94.150734,50.310966 
	C94.759865,48.596401 95.149879,46.765125 96.014473,45.193253 
	C96.635262,44.064640 97.878868,43.278603 98.844627,42.339741 
	C99.255844,42.627743 99.667053,42.915745 100.078270,43.203751 
	C98.321411,48.245594 96.624634,53.310131 94.738777,58.303253 
	C94.475304,59.000866 93.049881,59.929420 92.568604,59.736668 
	C91.540649,59.324978 90.371841,58.409874 89.977852,57.416565 
	C88.152786,52.815296 86.573120,48.116684 84.905563,43.452938 
	C85.297462,43.111267 85.689354,42.769596 86.081253,42.427921 
	C87.146286,43.635056 88.211327,44.842186 89.442307,46.407482 
z"/>
<path fill="#000001" opacity="1.000000" stroke="none" 
	d="
M105.020874,53.894768 
	C105.020874,49.778343 105.020874,46.140491 105.020874,42.266418 
	C106.371140,42.266418 107.440109,42.266418 108.745735,42.266418 
	C108.745735,47.996521 108.745735,53.752316 108.745735,59.742195 
	C107.616302,59.742195 106.547630,59.742195 105.020874,59.742195 
	C105.020874,57.954315 105.020874,56.163826 105.020874,53.894768 
z"/>
<path fill="#0C1113" opacity="1.000000" stroke="none" 
	d="
M136.379211,25.898155 
	C134.364777,27.139145 132.776154,28.360224 131.187546,29.581303 
	C130.813995,29.256393 130.440460,28.931484 130.066925,28.606575 
	C132.056122,23.613909 133.991394,18.598303 136.093781,13.653765 
	C136.402466,12.927775 137.622421,11.994258 138.213181,12.121368 
	C139.120102,12.316507 140.223663,13.189410 140.587662,14.051668 
	C142.585205,18.783697 144.382858,23.600107 146.516235,29.072672 
	C142.867538,27.872461 139.836273,26.875353 136.379211,25.898155 
z"/>
<path fill="#0D1215" opacity="1.000000" stroke="none" 
	d="
M116.063232,28.971954 
	C111.305817,26.997341 109.248062,23.612339 110.042633,18.951900 
	C110.715370,15.006051 113.224762,12.410114 117.363426,11.882118 
	C121.855888,11.308988 125.029182,13.138557 126.297096,18.250780 
	C124.885735,17.558640 123.519424,16.424932 122.052711,16.275278 
	C119.706718,16.035910 116.707756,15.614010 115.045319,16.780561 
	C112.470039,18.587667 112.454933,22.232239 114.915390,24.127697 
	C116.526192,25.368608 119.548149,25.121353 121.892387,24.942352 
	C123.385468,24.828344 124.794952,23.619545 126.473816,23.365702 
	C124.831711,28.521397 121.211586,29.907055 116.063232,28.971954 
z"/>
<path fill="#12181C" opacity="1.000000" stroke="none" 
	d="
M102.482056,12.629721 
	C103.782043,12.959051 105.670479,13.577465 105.763779,14.399594 
	C106.118187,17.522705 106.486160,20.873796 105.681808,23.821100 
	C105.111458,25.911013 102.977165,28.391830 100.981575,29.082933 
	C98.006439,30.113276 95.685265,28.187757 94.568169,23.648432 
	C97.240265,24.609188 99.083199,25.271814 102.246162,26.409063 
	C102.246162,21.667103 102.246162,17.339727 102.482056,12.629721 
z"/>
<path fill="#000001" opacity="1.000000" stroke="none" 
	d="
M151.004974,23.891340 
	C151.004974,19.788691 151.004974,16.163876 151.004974,12.539062 
	C151.398010,12.208401 151.791061,11.877739 152.184097,11.547077 
	C153.120422,12.573436 154.801941,13.555927 154.865387,14.633670 
	C155.155838,19.567795 154.993057,24.528601 154.993057,29.726353 
	C153.619461,29.726353 152.562653,29.726353 151.004974,29.726353 
	C151.004974,27.934875 151.004974,26.152025 151.004974,23.891340 
z"/>
<path fill="#000001" opacity="1.000000" stroke="none" 
	d="
M89.994995,24.848078 
	C89.930016,26.784576 89.865036,28.240995 89.800056,29.697416 
	C89.358643,29.957138 88.917221,30.216860 88.475807,30.476582 
	C87.652489,29.352062 86.184578,28.263960 86.118629,27.096653 
	C85.848495,22.315029 86.005859,17.509254 86.005859,12.475132 
	C88.508789,11.642831 90.172485,11.513474 90.023514,14.916970 
	C89.885864,18.061705 89.994713,21.217228 89.994995,24.848078 
z"/>
<path fill="#141415" opacity="1.000000" stroke="none" 
	d="
M215.879150,12.020332 
	C218.683487,17.434490 221.098114,22.823414 224.165497,29.669178 
	C220.228745,28.014044 217.641312,26.068529 215.070114,26.089760 
	C212.568329,26.110415 210.083191,28.145580 206.627502,29.740864 
	C209.062393,23.696911 210.964966,18.773260 213.070847,13.938148 
	C213.436493,13.098592 214.661377,12.633266 215.879150,12.020332 
z"/>
<path fill="#161617" opacity="1.000000" stroke="none" 
	d="
M198.820801,25.205997 
	C200.465851,24.263311 201.819229,23.576586 204.215546,22.360645 
	C202.292130,28.063156 199.052200,29.691660 194.725357,29.207729 
	C190.199875,28.701584 187.559418,25.909815 186.974930,21.411373 
	C186.448074,17.356375 189.185699,13.278670 192.975449,12.114195 
	C197.558640,10.705923 201.249863,12.550145 204.179489,18.334217 
	C202.303375,17.686394 200.765518,17.575043 199.857025,16.761166 
	C197.362885,14.526768 194.527573,13.781708 192.421005,16.342581 
	C191.130203,17.911753 190.562546,21.034176 191.169601,22.994814 
	C192.238037,26.445625 195.288422,26.930553 198.820801,25.205997 
z"/>
<path fill="#020203" opacity="1.000000" stroke="none" 
	d="
M172.896973,26.829567 
	C172.894119,21.718596 172.894119,17.091352 172.894119,12.248955 
	C176.176117,12.248955 179.092361,12.248955 182.008606,12.248955 
	C182.174881,12.765246 182.341156,13.281539 182.507416,13.797831 
	C180.690979,14.394636 178.874542,14.991442 176.455215,15.786336 
	C174.769989,20.834274 179.776962,18.131029 183.171021,20.134293 
	C180.357559,21.257315 178.598068,21.959637 176.365845,22.850655 
	C173.090256,29.021524 183.844223,23.372692 181.728302,29.645798 
	C178.862701,28.888702 175.881271,28.101002 172.896973,26.829567 
z"/>
<path fill="#000001" opacity="1.000000" stroke="none" 
	d="
M231.981979,14.288673 
	C231.983337,19.586119 231.983337,24.412529 231.983337,29.635386 
	C230.743805,29.741083 229.577652,29.840525 228.198929,29.958090 
	C228.198929,23.989742 228.198929,18.363770 228.198929,11.337187 
	C229.786621,12.378575 230.883621,13.098107 231.981979,14.288673 
z"/>
<path fill="#160A0B" opacity="1.000000" stroke="none" 
	d="
M211.362427,54.482788 
	C211.153992,55.447998 211.092148,56.723442 211.266403,56.756561 
	C212.754196,57.039314 214.284805,57.096691 215.802612,57.221516 
	C215.832932,57.927975 215.863251,58.634430 215.893570,59.340885 
	C212.177917,59.588940 208.462250,59.836994 203.528885,60.166340 
	C204.516434,58.072628 204.846390,56.729591 205.654129,55.803055 
	C207.060654,54.189648 209.115280,53.056301 210.225983,51.297245 
	C211.091873,49.925892 210.937485,47.910309 211.236511,46.181023 
	C209.948746,46.753052 208.667923,47.341461 207.370697,47.891151 
	C206.552826,48.237720 205.710403,48.526360 204.878998,48.840981 
	C204.459106,48.412445 204.039215,47.983906 203.619324,47.555367 
	C205.188843,45.939308 206.513885,43.513218 208.399414,42.944157 
	C210.144882,42.417366 213.478363,43.266109 214.316315,44.620441 
	C215.322098,46.246052 214.705597,49.107624 214.235931,51.315834 
	C214.001389,52.418610 212.530273,53.258373 211.362427,54.482788 
z"/>
<path fill="#120809" opacity="1.000000" stroke="none" 
	d="
M231.080505,57.021187 
	C230.979004,58.025494 230.545914,59.684158 229.949829,59.744968 
	C227.170258,60.028534 224.345673,59.870682 220.248260,59.870682 
	C221.425491,57.764431 221.992493,56.259583 222.974991,55.109753 
	C224.366776,53.480904 226.374130,52.315205 227.517166,50.560009 
	C228.211868,49.493256 227.774078,47.689003 227.845016,46.216034 
	C226.624542,46.621979 225.364349,46.939693 224.197510,47.464836 
	C223.417725,47.815788 222.770691,48.461750 222.064255,48.975689 
	C221.581543,48.613575 221.098846,48.251461 220.616135,47.889343 
	C221.804932,46.246498 222.785080,43.492138 224.231323,43.220634 
	C226.414688,42.810753 230.085907,43.360107 231.082977,44.859520 
	C234.542236,50.061623 229.273605,52.694401 226.196640,56.526318 
	C228.002335,56.692947 229.338074,56.816212 231.080505,57.021187 
z"/>
</svg>